<?xml version="1.0" encoding="UTF-8" standalone="no"?>
<svg
   width="100px"
   height="100px"
   viewBox="0 0 100 100"
   version="1.1"
   id="svg18"
   sodipodi:docname="ollama-custom-icon.svg"
   inkscape:version="1.3.1 (9b9bdc1480, 2023-11-25, custom)"
   xml:space="preserve"
   xmlns:inkscape="http://www.inkscape.org/namespaces/inkscape"
   xmlns:sodipodi="http://sodipodi.sourceforge.net/DTD/sodipodi-0.dtd"
   xmlns:xlink="http://www.w3.org/1999/xlink"
   xmlns="http://www.w3.org/2000/svg"
   xmlns:svg="http://www.w3.org/2000/svg"
   xmlns:rdf="http://www.w3.org/1999/02/22-rdf-syntax-ns#"
   xmlns:cc="http://creativecommons.org/ns#"
   xmlns:dc="http://purl.org/dc/elements/1.1/"><metadata
     id="metadata22"><rdf:RDF><cc:Work
         rdf:about=""><dc:format>image/svg+xml</dc:format><dc:type
           rdf:resource="http://purl.org/dc/dcmitype/StillImage" /><dc:title>eclispe-che</dc:title></cc:Work></rdf:RDF></metadata><sodipodi:namedview
     pagecolor="#ffffff"
     bordercolor="#666666"
     borderopacity="1"
     objecttolerance="10"
     gridtolerance="10"
     guidetolerance="10"
     inkscape:pageopacity="0"
     inkscape:pageshadow="2"
     inkscape:window-width="1920"
     inkscape:window-height="1016"
     id="namedview20"
     showgrid="false"
     inkscape:pagecheckerboard="true"
     inkscape:zoom="2.36"
     inkscape:cx="-25.423729"
     inkscape:cy="22.881356"
     inkscape:window-x="0"
     inkscape:window-y="0"
     inkscape:window-maximized="1"
     inkscape:current-layer="layer1"
     inkscape:showpageshadow="2"
     inkscape:deskcolor="#d1d1d1" /><!-- Generator: Sketch 45.2 (43514) - http://www.bohemiancoding.com/sketch --><title
     id="title2">eclispe-che</title><desc
     id="desc4">Created with Sketch.</desc><defs
     id="defs7"><path
       d="M50.0004412,4.04252804e-14 C22.3871247,4.04252804e-14 0,22.3848726 0,49.9995588 C0,77.6133626 22.3871247,100 50.0004412,100 C77.6137577,100 100,77.6133626 100,49.9995588 C100,22.3848726 77.6128753,3.55271368e-14 50.0004412,4.04252804e-14 Z"
       id="path-1" /></defs><g
     inkscape:groupmode="layer"
     id="layer1"
     inkscape:label="BACKGROUND"><g
       style="fill:#ffffff;fill-opacity:1;fill-rule:evenodd;stroke:none;stroke-width:1;stroke-opacity:1"
       id="Page-1"><g
         id="eclispe-che"
         style="fill:#ffffff;fill-opacity:1;stroke:none;stroke-opacity:1"><g
           id="path3023-path"
           style="fill:#ffffff;fill-opacity:1;stroke:none;stroke-opacity:1"><use
             xlink:href="#path-1"
             id="use9"
             style="fill:#ffffff;fill-opacity:1;fill-rule:evenodd;stroke:none;stroke-opacity:1"
             x="0"
             y="0"
             width="100%"
             height="100%" /><path
             d="M 50.000441,0.5 C 22.662621,0.5 0.5,22.661661 0.5,49.999559 0.5,77.337051 22.663098,99.5 50.000441,99.5 77.337613,99.5 99.5,77.337222 99.5,49.999559 99.5,22.661796 77.337514,0.5 50.000441,0.5 Z"
             id="path11"
             style="fill:#ffffff;fill-opacity:1;stroke:none;stroke-width:1;stroke-opacity:1"
             inkscape:connector-curvature="0" /></g></g></g><g
       id="g23"
       transform="translate(0.33707961,-3.4070244)"><path
         style="fill:#000000;fill-rule:evenodd"
         d="m 22.941076,87.374833 -0.641955,-2.499337 0.04428,-4.814329 0.746439,-3.615868 1.313498,-2.855825 -1.270049,-2.468096 -1.326428,-4.642448 -0.06481,-5.402801 0.498419,-2.959636 1.682346,-4.217477 -2.205076,-4.559171 -0.499247,-3.398003 0.230382,-4.409842 2.059109,-5.657442 2.210296,-2.432768 2.27139,-2.349802 -0.67247,-4.054907 0.25164,-5.325886 0.92329,-4.042234 1.13028,-2.811755 1.12646,-1.536121 1.43738,-1.213358 1.47783,-0.546627 2.01079,-0.04004 1.70237,0.795164 1.44089,1.759416 1.2626,2.629322 0.90555,3.146001 0.62235,3.420761 3.50026,-1.633362 4.71678,-0.960011 2.55432,0.21714 3.36324,1.058443 2.4442,1.360618 1.05477,-5.256626 1.52231,-3.581316 1.99844,-2.135299 1.6254,-0.87451 2.44678,-0.02271 1.55257,0.976097 1.28034,1.39155 1.66673,2.957308 0.84616,3.60604 0.38747,3.21707 -0.0118,4.728518 -0.62794,2.795048 1.84782,1.794537 1.99036,2.175386 1.43102,2.393664 0.87699,2.722479 0.53023,3.013481 -0.0492,3.218467 -1.18589,4.632982 -1.48967,2.482269 0.97853,2.361543 0.7079,1.81771 0.62364,2.931549 0.0566,5.461509 -0.67464,3.281777 -1.61904,3.285399 -0.56245,0.829767 1.00144,1.95685 1.13924,4.531912 -0.0508,5.131091 -0.39911,2.202438 -4.16436,0.0151 0.58548,-3.278675 -0.0516,-4.323358 -2.36946,-5.474284 -0.11726,-1.820451 1.74923,-2.87067 1.19628,-3.207553 0.14401,-5.094004 -1.04872,-3.685437 -1.68602,-3.369503 0.0822,-1.738105 1.69269,-2.179938 1.20337,-3.63873 -0.10272,-4.461463 -1.29074,-3.971527 -2.03195,-2.337646 c 0,0 -2.89426,-2.355026 -2.97691,-2.341785 -0.0827,0.01324 -2.34344,-0.787405 -2.34344,-0.787405 l -4.89756,-0.113265 -1.18807,-2.420096 -1.81104,-2.034643 -1.52996,-1.151702 -2.08347,-1.031391 -2.38425,-0.656955 -2.9705,-0.231727 -4.06463,1.344584 c 0,0 -1.63212,0.837423 -1.63212,0.89282 0,0.0554 -2.7846,3.225605 -2.7846,3.225605 l -0.90648,1.915159 -5.02257,0.155225 -1.91169,0.790302 -1.60621,1.018977 -2.10545,1.777002 -1.82438,2.381613 -1.07753,3.403124 -0.19309,2.368112 0.18021,3.222346 0.61614,1.172237 1.45683,2.639408 1.11306,1.361602 -0.36998,1.871555 -0.93907,1.584172 -1.16023,2.683892 -0.28951,2.123196 -0.27771,5.137608 1.42259,4.031166 1.678,2.393405 -0.0756,1.689226 -0.68784,1.174409 -0.99135,2.043126 -0.61061,2.935895 0.0345,4.41129 0.45569,1.104581 0.0212,1.43055 z"
         id="path14" /><path
         style="fill:#ffffff;fill-opacity:1;fill-rule:evenodd"
         d="m 31.740738,28.603117 2.33e-4,-6.633254 0.242408,-1.781606 0.27577,-1.038916 0.321159,-1.046521 0.324314,-0.719956 0.406866,-0.769094 0.490532,-0.706353 0.352116,-0.29946 0.341021,-0.128459 0.152613,0.02263 0.2489,0.229425 0.434979,0.692283 0.45541,0.887415 0.544687,1.319265 0.419151,1.083633 0.30246,1.281712 0.181347,1.197686 0.106062,1.250238 0.04678,1.614328 0.02899,1.960754 -0.116949,0.659257 -0.294314,0.349453 -0.696292,0.08341 -1.678467,0.09191 -1.952375,0.189597 z"
         id="path17" /><path
         style="fill:#ffffff;fill-opacity:1;fill-rule:evenodd"
         d="m 63.771397,28.095516 -0.942901,-0.229032 -0.507586,-0.702092 0.07461,-3.789013 0.310594,-1.508494 0.479277,-1.827867 0.688486,-2.228362 0.816205,-1.451219 0.505977,-0.787165 0.181759,-0.07459 0.20588,-0.0017 0.252166,0.04817 0.130609,0.124245 c 0,0 0.221571,0.38762 0.239803,0.417301 0.01823,0.02968 0.569343,1.112425 0.569343,1.112425 l 0.790146,2.125056 0.293129,1.326626 0.213945,1.405519 0.01995,2.832085 -0.0018,1.760734 -0.05982,1.766933 -0.121612,0.325644 -1.519851,-0.270471 z"
         id="path18" /><path
         style="fill:#000000;fill-opacity:1;fill-rule:evenodd"
         d="m 34.470666,49.262137 -1.026438,-0.466403 -0.501369,-0.518193 -0.497418,-0.840198 0.07491,-1.160448 0.402909,-1.203168 0.866532,-0.929441 1.044287,-0.5021 1.188684,-0.109871 0.960018,0.499466 0.736325,0.895354 0.387548,1.176541 -0.257634,1.406817 -0.954458,1.096222 -1.165276,0.68161 z"
         id="path19" /><path
         style="fill:#000000;fill-opacity:1;fill-rule:evenodd"
         d="m 62.061301,47.280071 -0.142349,-1.587351 0.750517,-1.302944 1.367315,-0.875017 1.870879,0.34395 1.232282,1.466653 0.43963,2.12032 -1.370827,1.634751 -1.383116,0.325078 -2.073943,-0.780655 z"
         id="path20" /><path
         style="fill:#000000;fill-opacity:1;fill-rule:evenodd"
         d="m 46.840587,61.257824 -2.704786,-0.630697 -2.494262,-1.602419 -2.300999,-2.533324 -1.103392,-3.472859 0.462746,-3.043031 1.908039,-3.0739 2.566972,-1.939494 3.522894,-1.351076 3.130225,-0.49537 2.599451,0.03628 2.68094,0.893305 2.509476,1.449975 2.263401,2.257695 1.320061,2.723513 0.365456,3.004115 -0.912178,3.007773 -2.053314,2.316069 -2.677282,1.419691 -2.959787,0.858632 z"
         id="path21" /><path
         style="fill:#ffffff;fill-opacity:1;fill-rule:evenodd"
         d="m 43.554845,56.852159 -1.600225,-1.539657 -0.758563,-2.302901 0.352435,-2.3702 1.605638,-2.154992 2.337575,-1.738039 2.635294,-0.642694 3.115888,-0.07286 2.871422,0.567788 2.119003,1.146257 1.322694,1.274123 1.210922,2.464709 0.01565,2.734778 -1.681714,2.271155 -2.623151,1.37858 -3.616087,0.538675 -3.624132,-0.1621 z"
         id="path22" /><path
         style="fill:#000000;fill-opacity:1;fill-rule:evenodd"
         d="m 49.879887,55.117814 c -0.07911,0.0094 -0.768182,-0.06104 -0.768182,-0.06104 l -0.294538,-0.616178 -0.0022,-0.660725 c 0,0 0.116052,-0.457808 0.116052,-0.516218 0,-0.05841 0.0095,-0.492335 0.0095,-0.492335 l -0.512853,-0.398373 c 0,0 -0.610764,-0.340622 -0.680622,-0.382391 -0.06986,-0.04177 -0.280895,-0.658421 -0.280895,-0.658421 l 0.0044,-0.676562 0.414283,-0.446543 0.391498,-0.204783 0.70264,0.03745 0.660506,0.28543 0.243991,0.245308 0.176401,0.07004 0.192457,-0.206612 0.466257,-0.347571 0.7571,-0.126622 0.761599,0.277018 0.193664,0.802453 -0.311362,0.765769 -0.574262,0.29728 -0.551111,0.359349 -0.162502,0.481252 0.107201,0.312459 0.174279,0.674149 -0.05494,0.821801 -0.350022,0.343182 z"
         id="path23" /></g></g><g
     inkscape:groupmode="layer"
     id="layer2"
     inkscape:label="PLACE LOGO HERE" /></svg>
